# xmcd
# 
# Track frame offsets:
#     150
#     19879
#     34692
#     50776
#     63065
#     77481
#     94117
#     110526
#     131747
#     148719
#     167124
#     183595
#     205447
# 
# Disc length: 2995
# 
# Revision: 1
# Processed by: cddbd v1.5.2PL0 Copyright (c) Steve Scherf et al.
# Submitted via: fre:ac v1.0.27
# 
DISCID=b80bb10d
DTITLE=Terry Quiett Band - Just My Luck
DYEAR=2011
DGENRE=Blues Rock
TTITLE0=Karma
TTITLE1=Work for It
TTITLE2=You re My Kind
TTITLE3=Big Man Boogie
TTITLE4=Getting Through to Me
TTITLE5=Judgment Day
TTITLE6=The Woodsman
TTITLE7=Pound of Flesh
TTITLE8=Some People
TTITLE9=Signs of Decline
TTITLE10=Satisfied
TTITLE11=Fool s Gold
TTITLE12=Close to You
EXTD=
EXTT0=
EXTT1=
EXTT2=
EXTT3=
EXTT4=
EXTT5=
EXTT6=
EXTT7=
EXTT8=
EXTT9=
EXTT10=
EXTT11=
EXTT12=
PLAYORDER=
